<?xml version="1.0" encoding="utf-8"?>
<!-- Generator: Adobe Illustrator 22.0.1, SVG Export Plug-In . SVG Version: 6.00 Build 0)  -->
<svg version="1.1" id="easy_to_learn" xmlns="http://www.w3.org/2000/svg" xmlns:xlink="http://www.w3.org/1999/xlink" x="0px"
	 y="0px" viewBox="0 0 670 670" style="enable-background:new 0 0 670 670;" xml:space="preserve">
<style type="text/css">
	.st0{fill:#E86F70;}
	.st1{fill:#5E6D72;}
	.st2{fill:#48F06D;}
	.st3{fill:#48F06D;stroke:#48F06D;}
	.st4{fill:#7A8B91;}
</style>
<path class="st0" d="M320,393.6c82.3,51,189-27.5,189-124.4S424.4,93.7,320,147.1c-104.4-53.3-189,25.2-189,122.1
	S237.7,444.6,320,393.6z"/>
<path class="st1" d="M608.1,441.2l0.9,0.1l0.9,0.1l0.9,0.1l0.9,0.2l0.9,0.2l0.8,0.2l0.8,0.3l0.8,0.3l0.8,0.3l0.8,0.4l0.8,0.4
	l0.8,0.4l0.7,0.4l0.7,0.5l0.7,0.5l0.7,0.5l0.7,0.5l0.6,0.6l0.6,0.6l0.6,0.6l0.6,0.6l0.5,0.7l0.5,0.7l0.5,0.7l0.5,0.7l0.4,0.7
	l0.4,0.8l0.4,0.8l0.4,0.8l0.3,0.8l0.3,0.8l0.3,0.8l0.2,0.8l0.2,0.9l0.2,0.9l0.1,0.9l0.1,0.9l0.1,0.9l0,0.9v22.1H77l-0.9,0l-0.9,0.1
	l-0.9,0.1l-0.9,0.1l-0.9,0.2l-0.9,0.2l-0.8,0.2l-0.8,0.3l-0.8,0.3l-0.8,0.3l-0.8,0.4l-0.8,0.4l-0.8,0.4l-0.7,0.4l-0.7,0.5l-0.7,0.5
	l-0.7,0.5l-0.7,0.5l-0.6,0.6l-0.6,0.6l-0.6,0.6l-0.6,0.6l-0.5,0.7l-0.5,0.7l-0.5,0.7l-0.5,0.7l-0.4,0.7l-0.4,0.8l-0.4,0.8l-0.4,0.8
	l-0.3,0.8l-0.3,0.8l-0.3,0.8l-0.2,0.8l-0.2,0.9l-0.2,0.9l-0.1,0.9l-0.1,0.9l-0.1,0.9l0,0.9v66.3l0,0.9l0.1,0.9l0.1,0.9l0.1,0.9
	l0.2,0.9l0.2,0.9l0.2,0.8l0.3,0.8l0.3,0.8l0.3,0.8l0.4,0.8l0.4,0.8l0.4,0.8l0.4,0.7l0.5,0.7l0.5,0.7l0.5,0.7l0.5,0.7l0.6,0.6
	l0.6,0.6l0.6,0.6l0.6,0.6l0.7,0.5l0.7,0.5l0.7,0.5l0.7,0.5l0.7,0.4l0.8,0.4l0.8,0.4l0.8,0.4l0.8,0.3l0.8,0.3l0.8,0.3l0.8,0.2
	l0.9,0.2l0.9,0.2l0.9,0.1l0.9,0.1l0.9,0.1l0.9,0h552.3v22.1l0,0.9l-0.1,0.9l-0.1,0.9l-0.1,0.9l-0.2,0.9l-0.2,0.9l-0.2,0.8l-0.3,0.8
	l-0.3,0.8l-0.3,0.8l-0.4,0.8l-0.4,0.8l-0.4,0.8l-0.4,0.7l-0.5,0.7L625,631l-0.5,0.7l-0.5,0.7l-0.6,0.6l-0.6,0.6l-0.6,0.6l-0.6,0.6
	l-0.7,0.5l-0.7,0.5l-0.7,0.5l-0.7,0.5l-0.7,0.4l-0.8,0.4l-0.8,0.4l-0.8,0.4l-0.8,0.3l-0.8,0.3l-0.8,0.3l-0.8,0.2l-0.9,0.2l-0.9,0.2
	l-0.9,0.1l-0.9,0.1l-0.9,0.1l-0.9,0H32.8l-0.9,0l-0.9-0.1l-0.9-0.1l-0.9-0.1l-0.9-0.2l-0.9-0.2l-0.8-0.2l-0.8-0.3l-0.8-0.3l-0.8-0.3
	l-0.8-0.4l-0.8-0.4l-0.8-0.4l-0.7-0.4l-0.7-0.5l-0.7-0.5l-0.7-0.5l-0.7-0.5l-0.6-0.6l-0.6-0.6l-0.6-0.6l-0.6-0.6l-0.5-0.7L15,631
	l-0.5-0.7l-0.5-0.7l-0.4-0.7l-0.4-0.8l-0.4-0.8l-0.4-0.8l-0.3-0.8l-0.3-0.8l-0.3-0.8l-0.2-0.8l-0.2-0.9l-0.2-0.9l-0.1-0.9l-0.1-0.9
	l-0.1-0.9l0-0.9V463.2l0-0.9l0.1-0.9l0.1-0.9l0.1-0.9l0.2-0.9l0.2-0.9l0.2-0.8l0.3-0.8l0.3-0.8l0.3-0.8l0.4-0.8l0.4-0.8l0.4-0.8
	l0.4-0.7l0.5-0.7l0.5-0.7l0.5-0.7l0.5-0.7l0.6-0.6l0.6-0.6l0.6-0.6l0.6-0.6l0.7-0.5l0.7-0.5l0.7-0.5l0.7-0.5l0.7-0.4l0.8-0.4
	l0.8-0.4l0.8-0.4l0.8-0.3l0.8-0.3l0.8-0.3l0.8-0.2l0.9-0.2l0.9-0.2l0.9-0.1l0.9-0.1l0.9-0.1l0.9,0h574.4L608.1,441.2z"/>
<path class="st2" d="M323.4,13.7c8.9,0,16.1,7.2,16.1,16.1v115.9c0,8.9-7.2,16.1-16.1,16.1h-0.6c-8.9,0-16.1-7.2-16.1-16.1V29.7
	c0-8.9,7.2-16.1,16.1-16.1H323.4z"/>
<path class="st3" d="M238.9,76.3c61.9-6.4,93.5,10.4,98-6.4c-27.8,0-40.6,4-81.7-46.1c-49.6-21.8-93.5-18.9-98-2.1
	C152.7,38.6,189.3,63,238.9,76.3z"/>
<path class="st2" d="M350.6,11.8c3.8,6.6,5.3,12.8,3.3,14l-25.5,14.7c-2,1.1-6.6-3.3-10.4-9.9l-0.2-0.4c-3.8-6.6-5.3-12.8-3.3-14
	L340,1.5c2-1.1,6.6,3.3,10.4,9.9L350.6,11.8z"/>
<path class="st4" d="M596.2,505.4c6.1,0,11,2.6,11,5.7l0,0c0,3.2-4.9,5.7-11,5.7H88c-6.1,0-11-2.6-11-5.7l0,0c0-3.2,4.9-5.7,11-5.7
	H596.2z"/>
<path class="st4" d="M596.2,535.4c6.1,0,11,2.6,11,5.7l0,0c0,3.2-4.9,5.7-11,5.7H88c-6.1,0-11-2.6-11-5.7l0,0c0-3.2,4.9-5.7,11-5.7
	H596.2z"/>
<path class="st4" d="M596.2,565.4c6.1,0,11,2.6,11,5.7l0,0c0,3.2-4.9,5.7-11,5.7H88c-6.1,0-11-2.6-11-5.7l0,0c0-3.2,4.9-5.7,11-5.7
	H596.2z"/>
</svg>
