<?xml version="1.0" encoding="utf-8"?>
<!-- Generator: Adobe Illustrator 22.0.1, SVG Export Plug-In . SVG Version: 6.00 Build 0)  -->
<svg version="1.1" id="share" xmlns="http://www.w3.org/2000/svg" xmlns:xlink="http://www.w3.org/1999/xlink" x="0px" y="0px"
	 viewBox="0 0 660 660" style="enable-background:new 0 0 660 660;" xml:space="preserve">
<style type="text/css">
	.st0{fill:#8899FE;}
	.st1{fill:#ECEEEF;}
</style>
<path class="st0" d="M578.5,10.3l3.2,0.3l3.2,0.5l3.1,0.6l3.1,0.7l3,0.8l3,1l2.9,1.1l2.9,1.2l2.8,1.3l2.8,1.4l2.7,1.5l2.6,1.6
	l2.6,1.7l2.5,1.8l2.4,1.9l2.3,2l2.3,2.1l2.2,2.2l2.1,2.3l2,2.3l1.9,2.4l1.8,2.5l1.7,2.6l1.6,2.6l1.5,2.7l1.4,2.8l1.3,2.8l1.2,2.9
	l1.1,2.9l1,3l0.8,3l0.7,3.1l0.6,3.1l0.5,3.2l0.3,3.2l0.2,3.3l0.1,3.3v483.8l-0.1,3.3l-0.2,3.3l-0.3,3.2l-0.5,3.2l-0.6,3.1l-0.7,3.1
	l-0.8,3l-1,3l-1.1,2.9l-1.2,2.9l-1.3,2.8l-1.4,2.8l-1.5,2.7l-1.6,2.6l-1.7,2.6l-1.8,2.5l-1.9,2.4l-2,2.3l-2.1,2.3l-2.2,2.2l-2.3,2.1
	l-2.3,2l-2.4,1.9l-2.5,1.8l-2.6,1.7l-2.6,1.6l-2.7,1.5l-2.8,1.4l-2.8,1.3l-2.9,1.2l-2.9,1.1l-3,1l-3,0.8l-3.1,0.7l-3.1,0.6l-3.2,0.5
	l-3.2,0.3l-3.3,0.2l-3.3,0.1H88.1l-3.3-0.1l-3.3-0.2l-3.2-0.3l-3.2-0.5l-3.1-0.6l-3.1-0.7l-3-0.8l-3-1l-2.9-1.1l-2.9-1.2l-2.8-1.3
	l-2.8-1.4l-2.7-1.5l-2.6-1.6l-2.6-1.7l-2.5-1.8l-2.4-1.9l-2.3-2l-2.3-2.1l-2.2-2.2l-2.1-2.3l-2-2.3l-1.9-2.4l-1.8-2.5l-1.7-2.6
	l-1.6-2.6l-1.5-2.7l-1.4-2.8l-1.3-2.8l-1.2-2.9l-1.1-2.9l-1-3l-0.8-3l-0.7-3.1l-0.6-3.1l-0.5-3.2l-0.3-3.2l-0.2-3.3l-0.1-3.3V88.1
	l0.1-3.3l0.2-3.3l0.3-3.2l0.5-3.2l0.6-3.1l0.7-3.1l0.8-3l1-3l1.1-2.9l1.2-2.9l1.3-2.8l1.4-2.8l1.5-2.7l1.6-2.6l1.7-2.6l1.8-2.5
	l1.9-2.4l2-2.3l2.1-2.3l2.2-2.2l2.3-2.1l2.3-2l2.4-1.9l2.5-1.8l2.6-1.7l2.6-1.6l2.7-1.5l2.8-1.4l2.8-1.3l2.9-1.2l2.9-1.1l3-1l3-0.8
	l3.1-0.7l3.1-0.6l3.2-0.5l3.2-0.3l3.3-0.2l3.3-0.1h483.8l3.3,0.1L578.5,10.3z M60,585.4h540V140H60V585.4z M78.3,55l-3.7,1.6
	l-3.3,2.1l-3,2.6l-2.6,3l-2.1,3.3l-1.6,3.7l-1,3.9l-0.3,4.1l0.3,4.1l1,3.9l1.6,3.7l2.1,3.3l2.6,3l3,2.6l3.3,2.1l3.7,1.6l3.9,1
	l4.1,0.3l4.1-0.3l3.9-1l3.7-1.6l3.3-2.1l3-2.6l2.6-3l2.1-3.3l1.6-3.7l1-3.9l0.3-4.1l-0.3-4.1l-1-3.9l-1.6-3.7l-2.1-3.3l-2.6-3
	l-3-2.6l-3.3-2.1L94.5,55l-3.9-1l-4.1-0.3L82.3,54L78.3,55z M218.3,55l-3.7,1.6l-3.3,2.1l-3,2.6l-2.6,3l-2.1,3.3l-1.6,3.7l-1,3.9
	l-0.3,4.1l0.3,4.1l1,3.9l1.6,3.7l2.1,3.3l2.6,3l3,2.6l3.3,2.1l3.7,1.6l3.9,1l4.1,0.3l4.1-0.3l3.9-1l3.7-1.6l3.3-2.1l3-2.6l2.6-3
	l2.1-3.3l1.6-3.7l1-3.9l0.3-4.1l-0.3-4.1l-1-3.9l-1.6-3.7l-2.1-3.3l-2.6-3l-3-2.6l-3.3-2.1l-3.7-1.6l-3.9-1l-4.1-0.3l-4.1,0.3
	L218.3,55z M148.3,55l-3.7,1.6l-3.3,2.1l-3,2.6l-2.6,3l-2.1,3.3l-1.6,3.7l-1,3.9l-0.3,4.1l0.3,4.1l1,3.9l1.6,3.7l2.1,3.3l2.6,3
	l3,2.6l3.3,2.1l3.7,1.6l3.9,1l4.1,0.3l4.1-0.3l3.9-1l3.7-1.6l3.3-2.1l3-2.6l2.6-3l2.1-3.3l1.6-3.7l1-3.9l0.3-4.1l-0.3-4.1l-1-3.9
	l-1.6-3.7l-2.1-3.3l-2.6-3l-3-2.6l-3.3-2.1l-3.7-1.6l-3.9-1l-4.1-0.3l-4.1,0.3L148.3,55z"/>
<path class="st1" d="M291.5,343.9l2.9,1.2l2.8,1.7l2.5,2.1l0.8,0.8l-62.8,62.8l-0.9,1l-0.7,1.1l-0.5,1.2l-0.3,1.2l-0.1,1.2l0.1,1.2
	l0.3,1.2l0.5,1.2l0.7,1.1l0.9,1l28.1,28.1l1,0.9l1.1,0.7l1.2,0.5l1.2,0.3l1.2,0.1l1.2-0.1l1.2-0.3l1.2-0.5l1.1-0.7l1-0.9l62.8-62.8
	l0.8,0.8l2.1,2.5l1.7,2.8l1.2,2.9l0.7,3l0.2,3.1l-0.2,3.1l-0.7,3l-1.2,2.9l-1.7,2.8l-2.1,2.5l-62.5,62.5l-2.5,2.1l-2.8,1.7l-2.9,1.2
	l-3,0.7l-3.1,0.2l-3.1-0.2l-3-0.7l-2.9-1.2l-2.8-1.7l-2.5-2.1l-41.1-41.1l-2.1-2.5l-1.7-2.8l-1.2-2.9l-0.7-3l-0.2-3.1l0.2-3.1l0.7-3
	l1.2-2.9l1.7-2.8l2.1-2.5l62.5-62.5l2.5-2.1l2.8-1.7l2.9-1.2l3-0.7l3.1-0.2l3.1,0.2L291.5,343.9z M402.3,233.1l2.9,1.2l2.8,1.7
	l2.5,2.1l41.1,41.1l2.1,2.5l1.7,2.8l1.2,2.9l0.7,3l0.2,3.1l-0.2,3.1l-0.7,3l-1.2,2.9l-1.7,2.8l-2.1,2.5L389,370.4l-2.5,2.1l-2.8,1.7
	l-2.9,1.2l-3,0.7l-3.1,0.2l-3.1-0.2l-3-0.7l-2.9-1.2l-2.8-1.7l-2.5-2.1l-0.8-0.8l62.6-62.6l0.9-1l0.7-1.1l0.5-1.2l0.3-1.2l0.1-1.2
	l-0.1-1.2l-0.3-1.2l-0.5-1.2l-0.7-1.1l-0.9-1l-28.1-28.1l-1-0.9L392,266l-1.2-0.5l-1.2-0.3l-1.2-0.1l-1.2,0.1l-1.2,0.3l-1.2,0.5
	l-1.1,0.7l-1,0.9L320,330.1l-0.8-0.8l-2.1-2.5l-1.7-2.8l-1.2-2.9l-0.7-3l-0.2-3.1l0.2-3.1l0.7-3l1.2-2.9l1.7-2.8l2.1-2.5l62.5-62.5
	l2.5-2.1l2.8-1.7l2.9-1.2l3-0.7l3.1-0.2l3.1,0.2L402.3,233.1z"/>
<path class="st1" d="M384.6,306.8c3.2,3.2,3.2,8.3,0,11.4c-9.6,9.6-86.4,86.4-96,96c-3.2,3.2-8.3,3.2-11.4,0
	c-0.2-0.2-1.6-1.6-1.8-1.8c-3.2-3.2-3.2-8.3,0-11.4c9.6-9.6,86.4-86.4,96-96c3.2-3.2,8.3-3.2,11.4,0
	C383,305.3,384.4,306.7,384.6,306.8z"/>
</svg>
